<svg width="567" height="596" viewBox="0 0 567 596" fill="none" xmlns="http://www.w3.org/2000/svg"  class="sugarLogoExtended">
<path d="M283.669 379.3C283.669 379.3 333.669 371 371.169 379.3C371.169 379.3 366.969 141.7 533.769 0C533.769 0 662.969 216.7 408.769 379.3C408.769 379.3 521.269 470.4 396.269 545.7C271.269 621 283.769 587.7 283.769 587.7H282.869C282.869 587.7 295.369 621 170.369 545.7C45.3693 470.4 157.869 379.3 157.869 379.3C-96.4307 216.7 32.8693 0 32.8693 0C199.569 141.7 195.469 379.3 195.469 379.3C232.969 371 282.969 379.3 282.969 379.3" fill="url(#paint0_linear_87_79)"/>
<g opacity="0.38">
<g opacity="0.38">
<g opacity="0.38">
<path opacity="0.38" d="M235.169 581.6C235.169 581.6 179.269 555.1 160.169 539.3C160.169 539.3 122.169 517.1 135.169 493.8C152.969 461.7 171.969 496.2 194.569 495C215.569 493.9 217.069 479.1 234.969 477.2C257.569 474.8 256.369 498.6 283.669 496.2C283.669 496.2 308.669 477.1 322.869 476C338.369 474.8 345.569 484.9 359.669 492.6C373.769 500.3 384.869 492.8 401.269 478.3C410.269 470.3 455.769 448.3 447.669 491.4C439.369 535.4 314.569 591.5 297.869 594.8C280.069 598.4 283.569 587.7 283.569 587.7C283.569 587.7 282.369 598.4 269.569 594.4C263.669 592.6 251.969 589.7 235.169 581.6Z" fill="url(#paint1_linear_87_79)"/>
</g>
<g opacity="0.45">
<path opacity="0.45" d="M235.169 581.6C235.169 581.6 179.269 555.1 160.169 539.3C160.169 539.3 122.169 517.1 135.169 493.8C152.969 461.7 171.969 496.2 194.569 495C215.569 493.9 217.069 479.1 234.969 477.2C257.569 474.8 256.369 498.6 283.669 496.2C283.669 496.2 308.669 477.1 322.869 476C338.369 474.8 345.569 484.9 359.669 492.6C373.769 500.3 384.869 492.8 401.269 478.3C410.269 470.3 455.769 448.3 447.669 491.4C439.369 535.4 314.569 591.5 297.869 594.8C280.069 598.4 283.569 587.7 283.569 587.7C283.569 587.7 282.369 598.4 269.569 594.4C263.669 592.6 251.969 589.7 235.169 581.6Z" fill="white"/>
</g>
</g>
</g>
<g opacity="0.65">
<g opacity="0.65">
<g opacity="0.65">
<path opacity="0.65" d="M269.669 594.5C269.669 594.5 209.969 574.7 170.769 546.2C143.569 526.4 188.569 508.2 225.469 531.9C245.469 544.8 262.269 527.1 292.069 518.8C321.869 510.5 331.769 554.4 366.969 529.5C395.469 509.3 435.169 516.8 412.169 534.3C368.169 567.6 309.869 590.8 309.869 590.8C309.869 590.8 286.269 600.8 282.669 591.3C282.469 591.3 281.769 597.7 269.669 594.5Z" fill="url(#paint2_linear_87_79)"/>
</g>
<g opacity="0.45">
<path opacity="0.45" d="M269.669 594.5C269.669 594.5 209.969 574.7 170.769 546.2C143.569 526.4 188.569 508.2 225.469 531.9C245.469 544.8 262.269 527.1 292.069 518.8C321.869 510.5 331.769 554.4 366.969 529.5C395.469 509.3 435.169 516.8 412.169 534.3C368.169 567.6 309.869 590.8 309.869 590.8C309.869 590.8 286.269 600.8 282.669 591.3C282.469 591.3 281.769 597.7 269.669 594.5Z" fill="white"/>
</g>
</g>
</g>
<defs>
<linearGradient id="paint0_linear_87_79" x1="-0.220522" y1="297.575" x2="566.561" y2="297.575" gradientUnits="userSpaceOnUse">
<stop stop-color="#E0BCEB"/>
<stop offset="0.5159" stop-color="#B778DE"/>
<stop offset="1" stop-color="#9034E5"/>
</linearGradient>
<linearGradient id="paint1_linear_87_79" x1="130.236" y1="452.549" x2="451.112" y2="564.404" gradientUnits="userSpaceOnUse">
<stop stop-color="#FFD3EB"/>
<stop offset="0.3647" stop-color="#FF8FDE"/>
<stop offset="1" stop-color="#E452E5"/>
</linearGradient>
<linearGradient id="paint2_linear_87_79" x1="162.4" y1="556.41" x2="418.891" y2="556.41" gradientUnits="userSpaceOnUse">
<stop stop-color="#FFAADB"/>
<stop offset="0.5" stop-color="#FFAADE"/>
<stop offset="1" stop-color="#FF7FD4"/>
</linearGradient>
</defs>
</svg>
