<svg width="3136" height="596" viewBox="0 0 3136 596" fill="none" xmlns="http://www.w3.org/2000/svg" class="sugarLogoExtended">
<path d="M805.37 374C809.164 374 811.187 376.023 811.187 379.816V404.6C811.187 408.393 809.164 410.417 805.37 410.417H674.119C669.061 410.417 665.521 411.681 663.498 414.463C661.474 416.992 660.463 420.785 660.463 425.084V433.936C660.463 443.798 665.015 448.603 674.119 448.603H772.241C787.415 448.603 798.795 452.397 806.635 460.236C814.222 468.076 818.268 479.203 818.268 493.618V514.608C818.268 527.253 814.474 537.621 806.888 545.461C799.301 553.301 787.668 557.347 771.736 557.347H626.575C622.529 557.347 620.506 555.324 620.506 551.531V526.747C620.506 522.954 622.529 520.931 626.575 520.931H764.149C769.207 520.931 772.747 519.666 774.77 516.884C776.793 514.355 777.805 510.815 777.805 506.263V495.641C777.805 485.778 773.253 480.974 764.149 480.974H666.026C650.853 480.974 639.473 477.18 631.633 469.341C624.046 461.501 620 450.374 620 435.959V416.739C620 404.094 623.793 393.726 631.38 385.886C638.967 378.046 650.6 374 666.532 374H805.37V374Z" fill="white"/>
<path d="M913.102 374C916.896 374 918.919 376.023 918.919 379.816V484.261C918.919 491.342 919.425 497.159 920.689 501.711C921.701 506.263 923.724 510.056 926.253 512.585C928.782 515.367 932.322 517.137 936.874 518.402C941.426 519.666 946.99 520.172 953.818 520.172H1026.4C1033.23 520.172 1038.79 519.666 1043.34 518.402C1047.89 517.39 1051.43 515.367 1053.96 512.585C1056.49 509.803 1058.52 506.263 1059.53 501.711C1060.54 497.159 1061.04 491.342 1061.04 484.261V379.816C1061.04 376.023 1063.07 374 1066.86 374H1095.44C1099.23 374 1101.25 376.023 1101.25 379.816V488.307C1101.25 500.952 1099.99 511.574 1097.21 520.425C1094.68 529.276 1090.38 536.357 1084.56 541.921C1078.75 547.484 1071.16 551.278 1061.8 553.807C1052.45 556.336 1041.07 557.347 1027.92 557.347H952.554C939.403 557.347 928.023 556.083 918.666 553.807C909.309 551.278 901.975 547.484 895.906 541.921C890.089 536.357 885.79 529.276 883.008 520.425C880.226 511.574 878.962 500.952 878.962 488.307V379.816C878.962 376.023 880.985 374 885.031 374H913.102Z" fill="white"/>
<path d="M1370.33 374C1374.13 374 1376.15 376.023 1376.15 379.816V405.359C1376.15 409.405 1374.13 411.428 1370.33 411.428H1239.08C1232.25 411.428 1226.69 411.934 1222.14 413.198C1217.59 414.21 1214.04 416.233 1211.52 419.015C1208.99 421.797 1206.96 425.337 1205.95 429.889C1204.94 434.441 1204.18 440.258 1204.18 447.086V484.767C1204.18 491.848 1204.69 497.665 1205.95 502.217C1206.96 506.769 1208.99 510.562 1211.52 513.091C1214.04 515.873 1217.59 517.643 1222.14 518.907C1226.69 519.919 1232.25 520.678 1239.08 520.678H1325.57C1330.12 520.678 1333.41 519.413 1335.43 517.137C1337.46 514.861 1338.47 510.562 1338.47 504.746V483.502C1338.47 481.226 1337.46 480.215 1335.43 480.215H1258.81C1255.01 480.215 1252.99 478.192 1252.99 474.145V454.42C1252.99 450.374 1255.01 448.35 1258.81 448.35H1368.06C1373.37 448.35 1375.9 450.879 1375.9 456.19V517.137C1375.9 531.805 1373.11 542.174 1367.55 548.243C1361.99 554.312 1353.89 557.347 1343.53 557.347H1237.82C1224.67 557.347 1213.29 556.083 1203.93 553.807C1194.57 551.278 1187.24 547.484 1181.17 541.921C1175.35 536.357 1171.05 529.276 1168.27 520.425C1165.49 511.574 1164.22 500.952 1164.22 488.307V443.293C1164.22 430.648 1165.49 420.026 1168.27 411.428C1171.05 402.577 1175.35 395.496 1181.17 390.185C1186.99 384.622 1194.57 380.575 1203.93 378.046C1213.29 375.517 1224.41 374.253 1237.82 374.253H1370.33V374Z" fill="white"/>
<path d="M1551.4 374C1557.98 374 1563.54 375.264 1568.09 378.046C1572.65 380.828 1577.2 386.139 1581.5 393.979L1668.24 551.278C1669 553.048 1669.25 554.565 1669 555.577C1668.49 556.588 1667.23 557.347 1665.2 557.347H1631.82C1628.79 557.347 1626.77 556.336 1625.75 554.06L1607.04 520.172H1483.88L1465.93 554.06C1464.66 556.336 1462.64 557.347 1459.86 557.347H1425.72C1423.44 557.347 1422.18 556.841 1421.67 555.577C1421.16 554.565 1421.42 553.048 1422.43 551.278L1508.41 393.979C1512.71 386.139 1517.01 380.828 1521.31 378.046C1525.61 375.264 1530.41 374 1535.98 374H1551.4ZM1500.57 489.825H1590.6L1548.87 413.198C1548.12 411.934 1547.1 411.428 1546.09 411.428H1544.58C1543.31 411.428 1542.3 411.934 1541.79 413.198L1500.57 489.825Z" fill="white"/>
<path d="M1870.3 374C1890.28 374 1904.69 378.552 1913.55 387.656C1922.4 396.76 1926.7 410.164 1926.7 427.866V442.787C1926.7 457.707 1923.66 469.593 1917.59 478.445C1911.52 487.296 1901.41 492.86 1887.75 495.136L1932.51 550.772C1933.27 551.531 1933.52 553.048 1933.27 554.818C1933.02 556.588 1931.5 557.347 1928.97 557.347H1895.08C1892.81 557.347 1891.29 557.094 1890.28 556.588C1889.52 556.083 1888.51 555.071 1887.75 554.06L1846.28 499.688H1761.81V551.783C1761.81 555.577 1759.79 557.6 1755.99 557.6H1727.92C1723.88 557.6 1721.85 555.577 1721.85 551.783V382.093C1721.85 376.782 1724.38 374.253 1729.69 374.253H1870.3V374ZM1761.81 467.57H1862.21C1871.06 467.57 1877.38 465.547 1881.18 461.754C1884.72 457.96 1886.74 452.144 1886.74 444.304V433.43C1886.74 425.59 1884.97 419.774 1881.18 415.98C1877.63 412.187 1871.31 410.164 1862.21 410.164H1765.35C1763.07 410.164 1762.06 411.175 1762.06 413.198V467.57H1761.81Z" fill="white"/>
<path d="M2143.17 374C2146.97 374 2148.99 376.023 2148.99 379.816V484.261C2148.99 491.342 2149.49 497.159 2150.76 501.711C2151.77 506.263 2153.79 510.056 2156.32 512.585C2158.85 515.367 2162.39 517.137 2166.94 518.402C2171.5 519.666 2177.06 520.172 2183.89 520.172H2289.85C2293.64 520.172 2295.67 522.195 2295.67 525.988V551.531C2295.67 555.324 2293.64 557.347 2289.85 557.347H2182.12C2168.97 557.347 2157.59 556.083 2148.23 553.807C2138.87 551.278 2131.54 547.484 2125.47 541.921C2119.65 536.357 2115.35 529.276 2112.57 520.425C2109.79 511.574 2108.53 500.952 2108.53 488.307V379.816C2108.53 376.023 2110.55 374 2114.6 374H2143.17V374Z" fill="white"/>
<path d="M2466.87 374C2473.45 374 2479.01 375.264 2483.57 378.046C2488.12 380.828 2492.67 386.139 2496.97 393.979L2583.71 551.278C2584.47 553.048 2584.72 554.565 2584.47 555.577C2583.96 556.588 2582.7 557.347 2580.68 557.347H2547.29C2544.26 557.347 2542.24 556.336 2541.22 554.06L2522.51 520.172H2399.35L2381.4 554.06C2380.13 556.336 2378.11 557.347 2375.33 557.347H2341.19C2338.91 557.347 2337.65 556.841 2337.14 555.577C2336.63 554.565 2336.89 553.048 2337.9 551.278L2423.88 393.979C2428.18 386.139 2432.48 380.828 2436.78 378.046C2441.08 375.264 2445.88 374 2451.45 374H2466.87ZM2416.04 489.825H2506.07L2464.35 413.198C2463.59 411.934 2462.58 411.428 2461.56 411.428H2460.05C2458.78 411.428 2457.77 411.934 2457.26 413.198L2416.04 489.825Z" fill="white"/>
<path d="M2683.86 374C2688.16 374 2691.44 374.253 2694.23 374.506C2697.01 374.759 2699.54 375.517 2701.56 376.782C2703.58 377.793 2705.61 379.564 2707.63 381.587C2709.65 383.61 2711.67 386.139 2714.2 389.679L2811.57 517.39C2812.33 518.655 2813.34 519.16 2814.86 519.16H2817.13C2818.65 519.16 2819.15 518.402 2819.15 516.631V380.069C2819.15 376.276 2821.18 374.253 2824.97 374.253H2852.54C2856.33 374.253 2858.35 376.276 2858.35 380.069V530.288C2858.35 540.909 2856.33 548.243 2852.54 551.783C2848.74 555.577 2842.67 557.347 2834.83 557.347H2812.33C2808.28 557.347 2804.99 557.094 2802.21 556.841C2799.43 556.588 2797.15 555.83 2795.13 554.818C2793.11 553.807 2791.08 552.289 2789.06 550.266C2787.04 548.243 2784.76 545.461 2782.23 541.921L2684.62 414.21C2683.6 412.946 2682.34 412.44 2681.33 412.44H2679.05C2677.53 412.44 2677.03 413.198 2677.03 414.969V551.531C2677.03 555.324 2675.01 557.347 2671.21 557.347H2643.65C2639.6 557.347 2637.58 555.324 2637.58 551.531V401.312C2637.58 390.691 2639.6 383.357 2643.39 379.816C2647.19 376.023 2653.26 374.253 2661.1 374.253H2683.86V374Z" fill="white"/>
<path d="M3055.1 374C3069.27 374 3081.4 375.517 3091.52 378.299C3101.64 381.081 3109.98 385.633 3116.3 391.702C3122.88 397.772 3127.43 405.359 3130.47 414.716C3133.5 424.073 3135.02 435.2 3135.02 447.845V483.502C3135.02 496.147 3133.5 507.274 3130.47 516.631C3127.43 525.989 3122.63 533.575 3116.3 539.645C3109.73 545.714 3101.64 550.013 3091.52 553.048C3081.4 555.83 3069.27 557.347 3055.1 557.347H2932.45C2927.14 557.347 2924.61 554.818 2924.61 549.508V381.84C2924.61 376.529 2927.14 374 2932.45 374H3055.1V374ZM2964.82 517.643C2964.82 519.919 2965.83 520.931 2968.11 520.931H3054.09C3061.68 520.931 3068.25 520.172 3073.56 518.907C3078.87 517.39 3082.92 515.367 3086.21 512.079C3089.5 508.792 3091.77 504.745 3093.04 499.435C3094.55 494.124 3095.06 487.802 3095.06 479.962V451.132C3095.06 443.545 3094.3 436.97 3093.04 431.659C3091.52 426.349 3089.24 422.302 3086.21 419.015C3083.17 415.727 3078.62 413.704 3073.56 412.187C3068.25 410.669 3061.93 410.164 3054.09 410.164H2968.11C2965.83 410.164 2964.82 411.428 2964.82 413.704V517.643Z" fill="white"/>
<path d="M283.669 379.3C283.669 379.3 333.669 371 371.169 379.3C371.169 379.3 366.969 141.7 533.769 0C533.769 0 662.969 216.7 408.769 379.3C408.769 379.3 521.269 470.4 396.269 545.7C271.269 621 283.769 587.7 283.769 587.7H282.869C282.869 587.7 295.369 621 170.369 545.7C45.3693 470.4 157.869 379.3 157.869 379.3C-96.4307 216.7 32.8693 0 32.8693 0C199.569 141.7 195.469 379.3 195.469 379.3C232.969 371 282.969 379.3 282.969 379.3" fill="url(#paint0_linear_87_93)"/>
<g opacity="0.38">
<g opacity="0.38">
<g opacity="0.38">
<path opacity="0.38" d="M235.169 581.6C235.169 581.6 179.269 555.1 160.169 539.3C160.169 539.3 122.169 517.1 135.169 493.8C152.969 461.7 171.969 496.2 194.569 495C215.569 493.9 217.069 479.1 234.969 477.2C257.569 474.8 256.369 498.6 283.669 496.2C283.669 496.2 308.669 477.1 322.869 476C338.369 474.8 345.569 484.9 359.669 492.6C373.769 500.3 384.869 492.8 401.269 478.3C410.269 470.3 455.769 448.3 447.669 491.4C439.369 535.4 314.569 591.5 297.869 594.8C280.069 598.4 283.569 587.7 283.569 587.7C283.569 587.7 282.369 598.4 269.569 594.4C263.669 592.6 251.969 589.7 235.169 581.6Z" fill="url(#paint1_linear_87_93)"/>
</g>
<g opacity="0.45">
<path opacity="0.45" d="M235.169 581.6C235.169 581.6 179.269 555.1 160.169 539.3C160.169 539.3 122.169 517.1 135.169 493.8C152.969 461.7 171.969 496.2 194.569 495C215.569 493.9 217.069 479.1 234.969 477.2C257.569 474.8 256.369 498.6 283.669 496.2C283.669 496.2 308.669 477.1 322.869 476C338.369 474.8 345.569 484.9 359.669 492.6C373.769 500.3 384.869 492.8 401.269 478.3C410.269 470.3 455.769 448.3 447.669 491.4C439.369 535.4 314.569 591.5 297.869 594.8C280.069 598.4 283.569 587.7 283.569 587.7C283.569 587.7 282.369 598.4 269.569 594.4C263.669 592.6 251.969 589.7 235.169 581.6Z" fill="white"/>
</g>
</g>
</g>
<g opacity="0.65">
<g opacity="0.65">
<g opacity="0.65">
<path opacity="0.65" d="M269.669 594.5C269.669 594.5 209.969 574.7 170.769 546.2C143.569 526.4 188.569 508.2 225.469 531.9C245.469 544.8 262.269 527.1 292.069 518.8C321.869 510.5 331.769 554.4 366.969 529.5C395.469 509.3 435.169 516.8 412.169 534.3C368.169 567.6 309.869 590.8 309.869 590.8C309.869 590.8 286.269 600.8 282.669 591.3C282.469 591.3 281.769 597.7 269.669 594.5Z" fill="url(#paint2_linear_87_93)"/>
</g>
<g opacity="0.45">
<path opacity="0.45" d="M269.669 594.5C269.669 594.5 209.969 574.7 170.769 546.2C143.569 526.4 188.569 508.2 225.469 531.9C245.469 544.8 262.269 527.1 292.069 518.8C321.869 510.5 331.769 554.4 366.969 529.5C395.469 509.3 435.169 516.8 412.169 534.3C368.169 567.6 309.869 590.8 309.869 590.8C309.869 590.8 286.269 600.8 282.669 591.3C282.469 591.3 281.769 597.7 269.669 594.5Z" fill="white"/>
</g>
</g>
</g>
<defs>
<linearGradient id="paint0_linear_87_93" x1="-0.220522" y1="297.575" x2="566.561" y2="297.575" gradientUnits="userSpaceOnUse">
<stop stop-color="#E0BCEB"/>
<stop offset="0.5159" stop-color="#B778DE"/>
<stop offset="1" stop-color="#9034E5"/>
</linearGradient>
<linearGradient id="paint1_linear_87_93" x1="130.236" y1="452.549" x2="451.112" y2="564.404" gradientUnits="userSpaceOnUse">
<stop stop-color="#FFD3EB"/>
<stop offset="0.3647" stop-color="#FF8FDE"/>
<stop offset="1" stop-color="#E452E5"/>
</linearGradient>
<linearGradient id="paint2_linear_87_93" x1="162.4" y1="556.41" x2="418.891" y2="556.41" gradientUnits="userSpaceOnUse">
<stop stop-color="#FFAADB"/>
<stop offset="0.5" stop-color="#FFAADE"/>
<stop offset="1" stop-color="#FF7FD4"/>
</linearGradient>
</defs>
</svg>
