<svg width="2516" height="184" viewBox="0 0 2516 184" fill="none" xmlns="http://www.w3.org/2000/svg" class="sugarLogoExtended">
<path d="M185.37 0C189.164 0 191.187 2.02311 191.187 5.8165V30.5999C191.187 34.3933 189.164 36.4166 185.37 36.4166H54.119C49.0612 36.4166 45.5207 37.681 43.4975 40.4628C41.4744 42.9917 40.4628 46.7852 40.4628 51.0843V59.9356C40.4628 69.7984 45.0149 74.6033 54.119 74.6033H152.241C167.415 74.6033 178.795 78.3966 186.635 86.2363C194.222 94.076 198.268 105.203 198.268 119.618V140.608C198.268 153.253 194.474 163.621 186.888 171.461C179.301 179.301 167.668 183.347 151.736 183.347H6.5752C2.52892 183.347 0.505778 181.324 0.505778 177.531V152.747C0.505778 148.954 2.52892 146.931 6.5752 146.931H144.149C149.207 146.931 152.747 145.666 154.77 142.884C156.793 140.355 157.805 136.815 157.805 132.263V121.641C157.805 111.778 153.253 106.974 144.149 106.974H46.0264C30.8529 106.974 19.4727 103.18 11.6331 95.3405C4.04628 87.5009 0 76.3736 0 61.9587V42.7389C0 30.0943 3.79339 19.7257 11.3802 11.886C18.9669 4.04631 30.6 0 46.5322 0H185.37V0Z" fill="white"/>
<path d="M293.102 0C296.896 0 298.919 2.02311 298.919 5.8165V110.261C298.919 117.342 299.425 123.159 300.689 127.711C301.701 132.263 303.724 136.056 306.253 138.585C308.782 141.367 312.322 143.137 316.874 144.402C321.426 145.666 326.99 146.172 333.818 146.172H406.398C413.226 146.172 418.79 145.666 423.342 144.402C427.894 143.39 431.435 141.367 433.964 138.585C436.493 135.803 438.516 132.263 439.527 127.711C440.539 123.159 441.045 117.342 441.045 110.261V5.8165C441.045 2.02311 443.068 0 446.861 0H475.438C479.231 0 481.255 2.02311 481.255 5.8165V114.307C481.255 126.952 479.99 137.574 477.208 146.425C474.679 155.276 470.38 162.357 464.564 167.921C458.747 173.484 451.16 177.278 441.803 179.807C432.446 182.336 421.066 183.347 407.916 183.347H332.554C319.403 183.347 308.023 182.083 298.666 179.807C289.309 177.278 281.975 173.484 275.906 167.921C270.089 162.357 265.79 155.276 263.008 146.425C260.226 137.574 258.962 126.952 258.962 114.307V5.8165C258.962 2.02311 260.985 0 265.031 0H293.102Z" fill="white"/>
<path d="M750.332 0C754.126 0 756.149 2.02311 756.149 5.8165V31.3587C756.149 35.405 754.126 37.4281 750.332 37.4281H619.081C612.253 37.4281 606.689 37.9339 602.137 39.1984C597.585 40.2099 594.045 42.233 591.516 45.0149C588.987 47.7967 586.964 51.3371 585.952 55.8892C584.941 60.4413 584.182 66.2579 584.182 73.086V110.767C584.182 117.848 584.688 123.665 585.952 128.217C586.964 132.769 588.987 136.562 591.516 139.091C594.045 141.873 597.585 143.643 602.137 144.907C606.689 145.919 612.253 146.678 619.081 146.678H705.57C710.122 146.678 713.41 145.413 715.433 143.137C717.456 140.861 718.468 136.562 718.468 130.746V109.502C718.468 107.226 717.456 106.215 715.433 106.215H638.807C635.013 106.215 632.99 104.192 632.99 100.145V80.4198C632.99 76.3735 635.013 74.3505 638.807 74.3505H748.056C753.367 74.3505 755.896 76.8794 755.896 82.1901V143.137C755.896 157.805 753.114 168.174 747.55 174.243C741.987 180.312 733.894 183.347 723.526 183.347H617.817C604.666 183.347 593.286 182.083 583.929 179.807C574.572 177.278 567.238 173.484 561.169 167.921C555.352 162.357 551.053 155.276 548.271 146.425C545.489 137.574 544.225 126.952 544.225 114.307V69.2926C544.225 56.648 545.489 46.0264 548.271 37.4281C551.053 28.5768 555.352 21.4959 561.169 16.1852C566.985 10.6216 574.572 6.57515 583.929 4.04622C593.286 1.51729 604.413 0.252831 617.817 0.252831H750.332V0Z" fill="white"/>
<path d="M931.403 0C937.979 0 943.542 1.2644 948.094 4.04622C952.646 6.82804 957.198 12.1389 961.498 19.9786L1048.24 177.278C1049 179.048 1049.25 180.565 1049 181.577C1048.49 182.588 1047.23 183.347 1045.21 183.347H1011.82C1008.79 183.347 1006.77 182.336 1005.75 180.06L987.04 146.172H863.881L845.926 180.06C844.661 182.336 842.638 183.347 839.856 183.347H805.716C803.44 183.347 802.175 182.841 801.669 181.577C801.164 180.565 801.417 179.048 802.428 177.278L888.412 19.9786C892.711 12.1389 897.01 6.82804 901.309 4.04622C905.608 1.2644 910.413 0 915.977 0H931.403ZM880.572 115.825H970.602L928.874 39.1984C928.116 37.9339 927.104 37.4281 926.093 37.4281H924.575C923.311 37.4281 922.299 37.9339 921.793 39.1984L880.572 115.825Z" fill="white"/>
<path d="M1250.3 0C1270.28 0 1284.69 4.55213 1293.55 13.6563C1302.4 22.7604 1306.7 36.1636 1306.7 53.8661V68.7868C1306.7 83.7075 1303.66 95.5934 1297.59 104.445C1291.52 113.296 1281.41 118.86 1267.75 121.136L1312.51 176.772C1313.27 177.531 1313.52 179.048 1313.27 180.818C1313.02 182.588 1311.5 183.347 1308.97 183.347H1275.08C1272.81 183.347 1271.29 183.094 1270.28 182.588C1269.52 182.083 1268.51 181.071 1267.75 180.06L1226.28 125.688H1141.81V177.783C1141.81 181.577 1139.79 183.6 1135.99 183.6H1107.92C1103.88 183.6 1101.85 181.577 1101.85 177.783V8.09259C1101.85 2.78185 1104.38 0.252831 1109.69 0.252831H1250.3V0ZM1141.81 93.5703H1242.21C1251.06 93.5703 1257.38 91.5472 1261.18 87.7538C1264.72 83.9604 1266.74 78.1438 1266.74 70.3041V59.4298C1266.74 51.5901 1264.97 45.7735 1261.18 41.9801C1257.63 38.1867 1251.31 36.1636 1242.21 36.1636H1145.35C1143.07 36.1636 1142.06 37.1752 1142.06 39.1984V93.5703H1141.81Z" fill="white"/>
<path d="M1523.17 0C1526.97 0 1528.99 2.02311 1528.99 5.8165V110.261C1528.99 117.342 1529.49 123.159 1530.76 127.711C1531.77 132.263 1533.79 136.056 1536.32 138.585C1538.85 141.367 1542.39 143.137 1546.94 144.402C1551.5 145.666 1557.06 146.172 1563.89 146.172H1669.85C1673.64 146.172 1675.67 148.195 1675.67 151.988V177.531C1675.67 181.324 1673.64 183.347 1669.85 183.347H1562.12C1548.97 183.347 1537.59 182.083 1528.23 179.807C1518.87 177.278 1511.54 173.484 1505.47 167.921C1499.65 162.357 1495.35 155.276 1492.57 146.425C1489.79 137.574 1488.53 126.952 1488.53 114.307V5.8165C1488.53 2.02311 1490.55 0 1494.6 0H1523.17V0Z" fill="white"/>
<path d="M1846.87 0C1853.45 0 1859.01 1.2644 1863.57 4.04622C1868.12 6.82804 1872.67 12.1389 1876.97 19.9786L1963.71 177.278C1964.47 179.048 1964.72 180.565 1964.47 181.577C1963.96 182.588 1962.7 183.347 1960.68 183.347H1927.29C1924.26 183.347 1922.24 182.336 1921.22 180.06L1902.51 146.172H1779.35L1761.4 180.06C1760.13 182.336 1758.11 183.347 1755.33 183.347H1721.19C1718.91 183.347 1717.65 182.841 1717.14 181.577C1716.63 180.565 1716.89 179.048 1717.9 177.278L1803.88 19.9786C1808.18 12.1389 1812.48 6.82804 1816.78 4.04622C1821.08 1.2644 1825.88 0 1831.45 0H1846.87ZM1796.04 115.825H1886.07L1844.35 39.1984C1843.59 37.9339 1842.58 37.4281 1841.56 37.4281H1840.05C1838.78 37.4281 1837.77 37.9339 1837.26 39.1984L1796.04 115.825Z" fill="white"/>
<path d="M2063.86 0C2068.16 0 2071.44 0.252923 2074.23 0.505816C2077.01 0.758709 2079.54 1.51729 2081.56 2.78176C2083.58 3.79333 2085.61 5.56364 2087.63 7.58678C2089.65 9.60992 2091.67 12.1389 2094.2 15.6794L2191.57 143.39C2192.33 144.655 2193.34 145.16 2194.86 145.16H2197.13C2198.65 145.16 2199.15 144.402 2199.15 142.631V6.06948C2199.15 2.2761 2201.18 0.252831 2204.97 0.252831H2232.54C2236.33 0.252831 2238.35 2.2761 2238.35 6.06948V156.288C2238.35 166.909 2236.33 174.243 2232.54 177.783C2228.74 181.577 2222.67 183.347 2214.83 183.347H2192.33C2188.28 183.347 2184.99 183.094 2182.21 182.841C2179.43 182.588 2177.15 181.83 2175.13 180.818C2173.11 179.807 2171.08 178.289 2169.06 176.266C2167.04 174.243 2164.76 171.461 2162.23 167.921L2064.62 40.21C2063.6 38.9455 2062.34 38.4397 2061.33 38.4397H2059.05C2057.53 38.4397 2057.03 39.1984 2057.03 40.9686V177.531C2057.03 181.324 2055.01 183.347 2051.21 183.347H2023.65C2019.6 183.347 2017.58 181.324 2017.58 177.531V27.3124C2017.58 16.6909 2019.6 9.357 2023.39 5.8165C2027.19 2.02311 2033.26 0.252831 2041.1 0.252831H2063.86V0Z" fill="white"/>
<path d="M2435.1 0C2449.27 0 2461.4 1.51739 2471.52 4.29921C2481.64 7.08102 2489.98 11.6331 2496.3 17.7025C2502.88 23.7719 2507.43 31.3586 2510.47 40.7156C2513.5 50.0727 2515.02 61.2 2515.02 73.8447V109.502C2515.02 122.147 2513.5 133.274 2510.47 142.631C2507.43 151.989 2502.63 159.575 2496.3 165.645C2489.73 171.714 2481.64 176.013 2471.52 179.048C2461.4 181.83 2449.27 183.347 2435.1 183.347H2312.45C2307.14 183.347 2304.61 180.818 2304.61 175.508V7.83961C2304.61 2.52886 2307.14 0 2312.45 0H2435.1V0ZM2344.82 143.643C2344.82 145.919 2345.83 146.931 2348.11 146.931H2434.09C2441.68 146.931 2448.25 146.172 2453.56 144.907C2458.87 143.39 2462.92 141.367 2466.21 138.079C2469.5 134.792 2471.77 130.745 2473.04 125.435C2474.55 120.124 2475.06 113.802 2475.06 105.962V77.1322C2475.06 69.5455 2474.3 62.9702 2473.04 57.6595C2471.52 52.3487 2469.24 48.3025 2466.21 45.0149C2463.17 41.7273 2458.62 39.7041 2453.56 38.1867C2448.25 36.6694 2441.93 36.1636 2434.09 36.1636H2348.11C2345.83 36.1636 2344.82 37.4281 2344.82 39.7042V143.643Z" fill="white"/>
</svg>
